<svg width="48" height="48" viewBox="0 0 48 48" fill="none" xmlns="http://www.w3.org/2000/svg">
<g clip-path="url(#clip0_33_263)">
<path d="M10.4438 7.53125H8.93752C7.07367 7.60044 7.07508 10.2752 8.93752 10.3438H10.4438C12.3076 10.2746 12.3062 7.59978 10.4438 7.53125Z" fill="#141414"/>
<path d="M17.9749 7.53125H16.4686C14.6048 7.60044 14.6062 10.2752 16.4686 10.3438H17.9749C19.8388 10.2746 19.8374 7.59978 17.9749 7.53125Z" fill="#141414"/>
<path d="M39.0625 7.53125H30.025C28.1612 7.60044 28.1626 10.2752 30.025 10.3438H39.0625C40.9263 10.2746 40.9249 7.59978 39.0625 7.53125Z" fill="#141414"/>
<path d="M48 4.41881C48 1.92694 45.9707 0 43.5813 0H4.41872C2.02903 0 0 1.92722 0 4.41881V13.4562C0 14.6349 0.454594 15.6869 1.18613 16.4688C0.454594 17.2506 0 18.3026 0 19.4813V28.5188C0 31.0103 2.02903 32.9376 4.41872 32.9376H22.5938V36.15H19.4813C18.7046 36.15 18.075 36.7796 18.075 37.5563V40.6687H1.40625C-0.457594 40.7379 -0.456187 43.4127 1.40625 43.4812H18.075V46.5938C18.075 47.3704 18.7046 48 19.4813 48H28.5188C29.2954 48 29.925 47.3704 29.925 46.5938V43.4812H46.5938C48.4576 43.4121 48.4562 40.7373 46.5938 40.6687H29.925V37.5563C29.925 36.7796 29.2954 36.15 28.5188 36.15H25.4062V32.9376H43.5813C45.9709 32.9376 48 31.0103 48 28.5188V19.4813C48 18.3025 47.5454 17.2506 46.8139 16.4688C47.5455 15.687 48 14.635 48 13.4562V4.41881ZM27.1125 38.9625V45.1875H20.8875V38.9625H27.1125ZM45.1875 28.5188C45.1875 29.4175 44.4595 30.1251 43.5813 30.1251H24.0018C24.0006 30.125 23.9993 30.125 23.9981 30.1251H4.41872C3.54131 30.1251 2.8125 29.4185 2.8125 28.5188V19.4813C2.8125 18.5826 3.54047 17.875 4.41872 17.875H43.5812C44.4586 17.875 45.1874 18.5816 45.1874 19.4813V28.5188H45.1875ZM45.1875 13.4562C45.1875 14.355 44.4595 15.0625 43.5813 15.0625H4.41872C3.54131 15.0625 2.8125 14.3559 2.8125 13.4562V4.41881C2.8125 3.51994 3.54047 2.8125 4.41872 2.8125H43.5812C44.4587 2.8125 45.1875 3.51909 45.1875 4.41881V13.4562Z" fill="#141414"/>
<path d="M10.4438 22.5938H8.93752C7.07367 22.6629 7.07508 25.3377 8.93752 25.4062H10.4438C12.3076 25.3371 12.3062 22.6623 10.4438 22.5938Z" fill="#141414"/>
<path d="M17.9749 22.5938H16.4686C14.6048 22.6629 14.6062 25.3377 16.4686 25.4062H17.9749C19.8388 25.3371 19.8374 22.6623 17.9749 22.5938Z" fill="#141414"/>
<path d="M39.0625 22.5938H30.025C28.1612 22.6629 28.1626 25.3377 30.025 25.4062H39.0625C40.9263 25.3371 40.9249 22.6623 39.0625 22.5938Z" fill="#141414"/>
</g>
<defs>
<clipPath id="clip0_33_263">
<rect width="48" height="48" fill="white"/>
</clipPath>
</defs>
</svg>
