<svg width="56" height="56" viewBox="0 0 56 56" fill="none" xmlns="http://www.w3.org/2000/svg">
<path d="M51.9925 14.5075L41.4925 4.00753C41.329 3.84534 41.1351 3.71702 40.9218 3.62993C40.7086 3.54284 40.4803 3.4987 40.25 3.50003H19.25C17.8576 3.50003 16.5223 4.05315 15.5377 5.03772C14.5531 6.02228 14 7.35764 14 8.75003V19.25C14 19.7142 14.1844 20.1593 14.5126 20.4875C14.8408 20.8157 15.2859 21 15.75 21C16.2141 21 16.6592 20.8157 16.9874 20.4875C17.3156 20.1593 17.5 19.7142 17.5 19.25V8.75003C17.5 8.2859 17.6844 7.84078 18.0126 7.51259C18.3408 7.1844 18.7859 7.00003 19.25 7.00003H38.5V12.25C38.5 13.6424 39.0531 14.9778 40.0377 15.9623C41.0223 16.9469 42.3576 17.5 43.75 17.5H49V47.25C49 47.7142 48.8156 48.1593 48.4874 48.4875C48.1592 48.8157 47.7141 49 47.25 49H33.25C32.7859 49 32.3407 49.1844 32.0126 49.5126C31.6844 49.8408 31.5 50.2859 31.5 50.75C31.5 51.2142 31.6844 51.6593 32.0126 51.9875C32.3407 52.3157 32.7859 52.5 33.25 52.5H47.25C48.6424 52.5 49.9777 51.9469 50.9623 50.9623C51.9469 49.9778 52.5 48.6424 52.5 47.25V15.75C52.5013 15.5197 52.4572 15.2914 52.3701 15.0782C52.283 14.865 52.1547 14.671 51.9925 14.5075ZM42 12.25V9.46753L46.5325 14H43.75C43.2859 14 42.8407 13.8157 42.5126 13.4875C42.1844 13.1593 42 12.7142 42 12.25Z" fill="#202246"/>
<path d="M17.5 24.5C14.7311 24.5 12.0243 25.3211 9.72202 26.8594C7.41973 28.3978 5.62531 30.5843 4.56569 33.1424C3.50606 35.7006 3.22881 38.5155 3.769 41.2313C4.3092 43.947 5.64257 46.4416 7.6005 48.3995C9.55844 50.3574 12.053 51.6908 14.7687 52.231C17.4845 52.7712 20.2994 52.4939 22.8576 51.4343C25.4157 50.3747 27.6022 48.5803 29.1406 46.278C30.6789 43.9757 31.5 41.2689 31.5 38.5C31.5 34.787 30.025 31.226 27.3995 28.6005C24.774 25.975 21.213 24.5 17.5 24.5ZM17.5 49C15.4233 49 13.3932 48.3842 11.6665 47.2304C9.9398 46.0767 8.59398 44.4368 7.79926 42.5182C7.00454 40.5996 6.79661 38.4884 7.20175 36.4516C7.6069 34.4148 8.60693 32.5438 10.0754 31.0754C11.5438 29.6069 13.4148 28.6069 15.4516 28.2018C17.4884 27.7966 19.5996 28.0045 21.5182 28.7993C23.4368 29.594 25.0767 30.9398 26.2304 32.6665C27.3842 34.3932 28 36.4233 28 38.5C28 41.2848 26.8938 43.9555 24.9246 45.9246C22.9555 47.8938 20.2848 49 17.5 49Z" fill="#202246"/>
<path d="M19.7575 33.7576L12.7575 40.7576C12.5935 40.9203 12.4633 41.1138 12.3744 41.3271C12.2856 41.5403 12.2399 41.7691 12.2399 42.0001C12.2399 42.2311 12.2856 42.4598 12.3744 42.6731C12.4633 42.8863 12.5935 43.0799 12.7575 43.2426C12.9202 43.4066 13.1137 43.5368 13.327 43.6256C13.5402 43.7145 13.769 43.7602 14 43.7602C14.231 43.7602 14.4598 43.7145 14.673 43.6256C14.8863 43.5368 15.0798 43.4066 15.2425 43.2426L22.2425 36.2426C22.4057 36.0794 22.5351 35.8857 22.6234 35.6725C22.7117 35.4593 22.7572 35.2308 22.7572 35.0001C22.7572 34.7693 22.7117 34.5408 22.6234 34.3276C22.5351 34.1145 22.4057 33.9207 22.2425 33.7576C22.0793 33.5944 21.8856 33.465 21.6724 33.3767C21.4592 33.2884 21.2308 33.2429 21 33.2429C20.7692 33.2429 20.5408 33.2884 20.3276 33.3767C20.1144 33.465 19.9207 33.5944 19.7575 33.7576Z" fill="#202246"/>
<path d="M14 36.75C14.9665 36.75 15.75 35.9665 15.75 35C15.75 34.0335 14.9665 33.25 14 33.25C13.0335 33.25 12.25 34.0335 12.25 35C12.25 35.9665 13.0335 36.75 14 36.75Z" fill="#202246"/>
<path d="M21 43.75C21.9665 43.75 22.75 42.9665 22.75 42C22.75 41.0335 21.9665 40.25 21 40.25C20.0335 40.25 19.25 41.0335 19.25 42C19.25 42.9665 20.0335 43.75 21 43.75Z" fill="#202246"/>
<path d="M33.25 14H22.75C22.2859 14 21.8408 14.1844 21.5126 14.5126C21.1844 14.8408 21 15.2859 21 15.75C21 16.2141 21.1844 16.6592 21.5126 16.9874C21.8408 17.3156 22.2859 17.5 22.75 17.5H33.25C33.7141 17.5 34.1592 17.3156 34.4874 16.9874C34.8156 16.6592 35 16.2141 35 15.75C35 15.2859 34.8156 14.8408 34.4874 14.5126C34.1592 14.1844 33.7141 14 33.25 14Z" fill="#202246"/>
<path d="M43.75 22.75H33.25C32.7859 22.75 32.3408 22.9344 32.0126 23.2626C31.6844 23.5908 31.5 24.0359 31.5 24.5C31.5 24.9641 31.6844 25.4092 32.0126 25.7374C32.3408 26.0656 32.7859 26.25 33.25 26.25H43.75C44.2141 26.25 44.6592 26.0656 44.9874 25.7374C45.3156 25.4092 45.5 24.9641 45.5 24.5C45.5 24.0359 45.3156 23.5908 44.9874 23.2626C44.6592 22.9344 44.2141 22.75 43.75 22.75Z" fill="#202246"/>
<path d="M43.75 31.5H36.75C36.2859 31.5 35.8408 31.6844 35.5126 32.0126C35.1844 32.3408 35 32.7859 35 33.25C35 33.7141 35.1844 34.1592 35.5126 34.4874C35.8408 34.8156 36.2859 35 36.75 35H43.75C44.2141 35 44.6592 34.8156 44.9874 34.4874C45.3156 34.1592 45.5 33.7141 45.5 33.25C45.5 32.7859 45.3156 32.3408 44.9874 32.0126C44.6592 31.6844 44.2141 31.5 43.75 31.5Z" fill="#202246"/>
<path d="M43.75 40.25H36.75C36.2859 40.25 35.8408 40.4344 35.5126 40.7626C35.1844 41.0908 35 41.5359 35 42C35 42.4641 35.1844 42.9092 35.5126 43.2374C35.8408 43.5656 36.2859 43.75 36.75 43.75H43.75C44.2141 43.75 44.6592 43.5656 44.9874 43.2374C45.3156 42.9092 45.5 42.4641 45.5 42C45.5 41.5359 45.3156 41.0908 44.9874 40.7626C44.6592 40.4344 44.2141 40.25 43.75 40.25Z" fill="#202246"/>
</svg>
