<svg width="57" height="57" viewBox="0 0 57 57" fill="none" xmlns="http://www.w3.org/2000/svg">
<path d="M14.25 23.1563C14.25 22.1731 15.0462 21.3751 16.0312 21.3751H26.7188C27.7038 21.3751 28.5 22.1731 28.5 23.1563C28.5 24.1396 27.7038 24.9376 26.7188 24.9376H16.0312C15.0462 24.9376 14.25 24.1396 14.25 23.1563ZM26.7188 28.5001H16.0312C15.0462 28.5001 14.25 29.2981 14.25 30.2813C14.25 31.2646 15.0462 32.0626 16.0312 32.0626H26.7188C27.7038 32.0626 28.5 31.2646 28.5 30.2813C28.5 29.2981 27.7038 28.5001 26.7188 28.5001ZM26.7188 35.6251H16.0312C15.0462 35.6251 14.25 36.4231 14.25 37.4063C14.25 38.3896 15.0462 39.1876 16.0312 39.1876H26.7188C27.7038 39.1876 28.5 38.3896 28.5 37.4063C28.5 36.4231 27.7038 35.6251 26.7188 35.6251ZM26.7188 42.7501H16.0312C15.0462 42.7501 14.25 43.5481 14.25 44.5313C14.25 45.5146 15.0462 46.3126 16.0312 46.3126H26.7188C27.7038 46.3126 28.5 45.5146 28.5 44.5313C28.5 43.5481 27.7038 42.7501 26.7188 42.7501ZM53.4375 51.6563C53.4375 52.6396 52.6413 53.4376 51.6562 53.4376H5.34375C4.35872 53.4376 3.5625 52.6396 3.5625 51.6563C3.5625 50.6731 4.35872 49.8751 5.34375 49.8751H7.125V17.1321C7.125 15.773 7.88025 14.5529 9.09328 13.9455L30.4683 3.25797C31.5833 2.70222 32.8765 2.75922 33.9346 3.41293C34.9927 4.06665 35.6232 5.19953 35.6232 6.44462V19.5938H46.3107C48.2754 19.5938 49.8732 21.1916 49.8732 23.1563V49.8751H51.6545C52.6395 49.8751 53.4375 50.6731 53.4375 51.6563ZM35.625 23.1563V49.8751H46.3125V23.1563H35.625ZM10.6875 49.8751H32.0625V6.44462L10.6875 17.1321V49.8751Z" fill="#202246"/>
</svg>
