<svg width="54" height="54" viewBox="0 0 54 54" fill="none" xmlns="http://www.w3.org/2000/svg">
<g clip-path="url(#clip0_33_245)">
<path d="M1.58203 16.7203C2.45573 16.7203 3.16406 16.0119 3.16406 15.1382V3.16406H15.1382C17.2351 3.08623 17.2335 0.0770977 15.1382 0H1.58203C0.708328 0 0 0.708328 0 1.58203V15.1382C0 16.0119 0.708328 16.7203 1.58203 16.7203Z" fill="#202246"/>
<path d="M15.1382 50.836H3.16406V38.8618C3.08623 36.765 0.0770977 36.7666 0 38.8618V52.418C0 53.2917 0.708328 54.0001 1.58203 54.0001H15.1382C17.2351 53.9222 17.2335 50.9131 15.1382 50.836Z" fill="#202246"/>
<path d="M52.418 0H38.8618C36.7649 0.0778359 36.7665 3.08697 38.8618 3.16406H50.8359V15.1382C50.9138 17.2351 53.9229 17.2335 54 15.1382V1.58203C54 0.708328 53.2917 0 52.418 0Z" fill="#202246"/>
<path d="M52.418 37.2798C51.5443 37.2798 50.8359 37.9881 50.8359 38.8618V50.836H38.8618C36.7649 50.9138 36.7665 53.923 38.8618 54.0001H52.418C53.2917 54.0001 54 53.2917 54 52.418V38.8618C54 37.9881 53.2917 37.2798 52.418 37.2798Z" fill="#202246"/>
<path d="M52.418 22.0289C41.9291 22.0289 36.0928 30.5016 33.7782 30.5016C32.8464 30.5016 33.3474 28.2231 33.5845 27.5003C33.9256 26.4767 33.1626 25.418 32.0837 25.418C30.6523 25.418 29.5494 26.7101 28.0229 28.4983C21.169 36.5957 22.367 29.7525 25.0259 24.3184C25.2712 23.8281 25.245 23.2456 24.9568 22.7792C24.6685 22.3127 24.1592 22.0289 23.611 22.0289C22.0641 22.0289 21.0657 23.6315 17.4928 29.7588C15.7116 32.7782 12.2617 38.9139 10.1611 40.5446C8.54624 36.9698 14.8421 17.2571 17.9514 14.5624C18.5692 13.9446 18.5692 12.943 17.9514 12.3251C17.3337 11.7074 16.3319 11.7074 15.7141 12.3251C13.3443 14.6949 10.6947 21.447 9.14593 26.509C5.84318 37.3023 5.88821 43.8328 10.0547 43.8328C12.5925 43.8328 15.1372 40.0504 19.8287 32.0331C20.1373 34.2715 21.6902 35.3602 23.6109 35.3602C26.2176 35.3602 28.4191 32.9028 30.2087 30.8109C30.3756 31.5663 31.0665 33.6657 33.7782 33.6657C38.1899 33.6657 42.6077 25.1929 52.418 25.1929C54.5092 25.1183 54.5181 22.1073 52.418 22.0289Z" fill="#202246"/>
</g>
<defs>
<clipPath id="clip0_33_245">
<rect width="54" height="54" fill="white"/>
</clipPath>
</defs>
</svg>
