<svg width="15" height="10" viewBox="0 0 15 10" fill="none" xmlns="http://www.w3.org/2000/svg">
<path d="M14.9997 1.17618C15.0046 0.946907 14.9404 0.721754 14.8158 0.532029C14.6912 0.342304 14.5125 0.197434 14.3046 0.11756C14.0967 0.0376862 13.87 0.0267775 13.6559 0.0863502C13.4417 0.145923 13.251 0.273017 13.1099 0.449963L7.51725 7.20145L1.92658 0.449962C1.83959 0.32756 1.72915 0.225051 1.60209 0.148855C1.47502 0.0726588 1.33407 0.0244173 1.18813 0.00715082C1.0422 -0.0101156 0.894428 0.00396532 0.754004 0.0485117C0.613578 0.0930582 0.483517 0.16711 0.372046 0.266031C0.260575 0.364951 0.170154 0.48661 0.106252 0.623387C0.0423488 0.760163 0.00645824 0.909113 0.000794364 1.06091C-0.00486856 1.2127 0.0197515 1.36407 0.0732726 1.50553C0.126795 1.64699 0.207981 1.7755 0.31175 1.88301L6.7067 9.61285C6.80686 9.73424 6.93119 9.83171 7.0713 9.89855C7.21142 9.96539 7.36393 10 7.51823 10C7.67254 10 7.82505 9.96539 7.96516 9.89855C8.10528 9.83171 8.22973 9.73424 8.32989 9.61285L14.731 1.88301C14.8987 1.68774 14.9938 1.43729 14.9997 1.17618Z" fill="#969696"/>
</svg>
