<svg width="9" height="18" viewBox="0 0 9 18" fill="none" xmlns="http://www.w3.org/2000/svg">
<path d="M2.5058 10.1602C2.44316 10.1602 1.06497 10.1602 0.438515 10.1602C0.104408 10.1602 0 10.025 0 9.68711C0 8.78598 0 7.86233 0 6.9612C0 6.60075 0.12529 6.48811 0.438515 6.48811H2.5058C2.5058 6.42053 2.5058 5.11389 2.5058 4.50563C2.5058 3.60451 2.65197 2.74844 3.06961 1.95995C3.50812 1.14894 4.13457 0.60826 4.92807 0.292866C5.45012 0.0901125 5.97216 0 6.53596 0H8.58237C8.87471 0 9 0.135169 9 0.450563V3.01877C9 3.33417 8.87471 3.46934 8.58237 3.46934C8.01856 3.46934 7.45476 3.46934 6.89095 3.49186C6.32715 3.49186 6.0348 3.78473 6.0348 4.41552C6.01392 5.09136 6.0348 5.74468 6.0348 6.44305H8.45708C8.79118 6.44305 8.91647 6.57822 8.91647 6.93867V9.66458C8.91647 10.025 8.81207 10.1377 8.45708 10.1377C7.70534 10.1377 6.09745 10.1377 6.0348 10.1377V17.4819C6.0348 17.8648 5.93039 18 5.55452 18C4.67749 18 3.82135 18 2.94432 18C2.63109 18 2.5058 17.8648 2.5058 17.5269C2.5058 15.1615 2.5058 10.2278 2.5058 10.1602Z" fill="white"/>
</svg>
