<svg width="67" height="21" viewBox="0 0 67 21" fill="none" xmlns="http://www.w3.org/2000/svg">
<g clip-path="url(#clip0_16_1580)">
<path d="M28.4499 18.5554C28.2293 18.7984 27.9616 19.0072 27.6526 19.1759C27.1731 19.4389 26.6641 19.5733 26.1434 19.5733C25.7256 19.5733 25.3313 19.4933 24.9724 19.336C24.6135 19.1787 24.2928 18.9643 24.0221 18.7012C23.7485 18.4353 23.5367 18.1264 23.3866 17.7776C23.2366 17.4287 23.1601 17.0627 23.1601 16.691C23.1601 16.2849 23.2454 15.8961 23.4131 15.5358C23.5808 15.1755 23.8073 14.8638 24.0839 14.6036C24.3605 14.3462 24.687 14.1375 25.0518 13.9859C25.4167 13.8344 25.8021 13.7572 26.1963 13.7572C26.4699 13.7572 26.7347 13.7915 26.9907 13.8572C27.226 13.923 27.4555 14.0145 27.6791 14.1375C27.8321 14.2204 27.9763 14.3148 28.1087 14.4177C28.1087 14.4177 28.1146 14.4234 28.1175 14.4234C28.2499 14.5264 28.3705 14.6379 28.4794 14.758C28.7147 15.0182 29.0707 15.1669 29.4532 15.1669H30.3623C30.2064 14.7723 29.9975 14.4034 29.7415 14.0689C29.4679 13.7143 29.1413 13.4055 28.7706 13.151C28.6971 13.0995 28.6206 13.0537 28.5441 13.0051C28.5323 12.9965 28.5206 12.9908 28.5088 12.9822C28.4764 12.9622 28.4411 12.9451 28.4058 12.9251C28.1499 12.7792 27.8792 12.6534 27.5909 12.559C27.1495 12.4132 26.6788 12.3389 26.1993 12.3389C26.1963 12.3389 26.1904 12.3389 26.1875 12.3389C26.1816 12.3389 26.1787 12.3389 26.1728 12.3389C25.5785 12.3389 25.0077 12.4532 24.4781 12.6734C24.3546 12.7249 24.2339 12.7821 24.1163 12.8421C24.1163 12.8479 24.1163 12.8507 24.1192 12.8564C23.7191 13.068 23.3572 13.3311 23.0424 13.6428C22.6393 14.0403 22.3157 14.5064 22.0803 15.0296C21.845 15.5529 21.7273 16.1105 21.7273 16.6853C21.7273 17.26 21.8479 17.8348 22.0803 18.3581C22.3157 18.8813 22.6393 19.3389 23.0424 19.7192C23.4455 20.0995 23.9191 20.4083 24.4517 20.6314C24.9842 20.8544 25.5549 20.9659 26.1463 20.9659C26.6141 20.9659 27.0789 20.8944 27.5232 20.7514C27.9645 20.6113 28.3764 20.4083 28.7471 20.1538C29.1149 19.8993 29.4444 19.5905 29.718 19.2359C29.9769 18.9042 30.1828 18.5354 30.3388 18.1379H29.4297C29.0472 18.1379 28.6912 18.2866 28.4558 18.5468L28.4499 18.5554Z" fill="white"/>
<path d="M38.8207 18.2633C38.6265 18.2004 37.7469 17.9745 37.0937 18.6665C36.9672 18.8209 36.8083 18.9667 36.6141 19.104C36.3876 19.2612 36.1287 19.3956 35.8404 19.5043C35.5491 19.613 35.2373 19.6673 34.9136 19.6673C34.6341 19.6673 34.3693 19.633 34.1281 19.5643C33.8839 19.4957 33.6662 19.4014 33.4779 19.2813C33.2867 19.1583 33.1307 19.0125 33.0189 18.8466C32.9042 18.6808 32.8453 18.472 32.8542 18.2633C32.8601 18.0345 32.9277 17.8401 33.0542 17.6857C33.1837 17.5255 33.3484 17.3911 33.5426 17.2853C33.7368 17.1824 33.9486 17.1109 34.1752 17.0709C34.4017 17.0308 34.6165 17.0108 34.8107 17.0108C35.0637 17.0108 35.3285 17.0337 35.5991 17.0795C35.8698 17.1252 36.1258 17.1738 36.3552 17.2224C36.5965 17.2739 36.7995 17.3168 36.9731 17.3654C37.435 17.4969 38.1911 17.517 38.5088 17.2853C38.6677 17.171 38.806 17.0223 38.8237 16.7363V15.9871V15.8384C38.8119 15.2065 38.7089 14.6632 38.5118 14.2228C38.3176 13.7853 38.0528 13.4193 37.7233 13.1391C37.3938 12.856 37.0084 12.6501 36.573 12.5186C36.1375 12.3871 35.6639 12.3213 35.1696 12.3213C34.7459 12.3213 34.3252 12.3813 33.9221 12.5014C33.5191 12.6215 33.1543 12.7988 32.8365 13.0333C32.5188 13.2649 32.254 13.5652 32.048 13.9226C31.8509 14.2629 31.7244 14.7318 31.6862 15.1836H32.2658C32.6953 15.1836 32.9954 14.9549 33.119 14.7947C33.2425 14.6346 33.5426 14.2143 33.8574 14.0141C34.0545 13.8883 34.2811 13.7968 34.5253 13.7396C35.0254 13.6252 35.5638 13.6224 36.0522 13.7653C36.3023 13.8397 36.5318 13.9512 36.7289 14.0999C36.9289 14.2486 37.0937 14.4402 37.2173 14.6661C37.3408 14.8948 37.4056 15.1665 37.4026 15.4753C37.3997 15.7841 37.3673 16.0672 37.3673 16.0672L37.2908 16.0443C36.8172 15.9014 36.3464 15.7956 35.8875 15.7298C35.4314 15.664 34.9931 15.6297 34.5871 15.6297C34.1281 15.6297 33.6985 15.6783 33.3102 15.7784C32.9277 15.8756 32.5894 16.0329 32.304 16.2416C32.0216 16.4504 31.798 16.7277 31.6361 17.0594C31.4743 17.394 31.3949 17.8 31.3949 18.2661C31.3949 18.7322 31.489 19.1211 31.6773 19.4614C31.8656 19.8017 32.1187 20.0905 32.4305 20.3164C32.7424 20.5451 33.0984 20.7167 33.4897 20.8311C34.3635 21.0856 35.252 21.0541 36.0875 20.7596C36.5435 20.5995 36.9378 20.325 37.2585 19.9389L37.3644 19.8131V20.0419C37.3644 20.4508 37.7086 20.7853 38.1293 20.7853H38.8207V20.5337C38.8207 20.4565 38.8207 20.3679 38.8207 20.2735V18.2633Z" fill="white"/>
<path d="M20.6358 18.2633C20.4416 18.2004 19.5619 17.9745 18.9088 18.6665C18.7823 18.8209 18.6234 18.9667 18.4292 19.104C18.2027 19.2612 17.9438 19.3956 17.6554 19.5043C17.3642 19.613 17.0523 19.6673 16.7287 19.6673C16.4492 19.6673 16.1844 19.633 15.9432 19.5643C15.699 19.4957 15.4812 19.4014 15.293 19.2813C15.1017 19.1583 14.9458 19.0125 14.834 18.8466C14.7192 18.6808 14.6604 18.472 14.6692 18.2633C14.6751 18.0345 14.7428 17.8401 14.8693 17.6857C14.9987 17.5255 15.1635 17.3911 15.3577 17.2853C15.5519 17.1824 15.7637 17.1109 15.9902 17.0709C16.2168 17.0308 16.4315 17.0108 16.6257 17.0108C16.8787 17.0108 17.1435 17.0337 17.4142 17.0795C17.6849 17.1252 17.9408 17.1738 18.1703 17.2224C18.4116 17.2739 18.6146 17.3168 18.7881 17.3654C19.2501 17.4969 20.0062 17.517 20.3239 17.2853C20.4828 17.171 20.6211 17.0223 20.6387 16.7363V15.9871V15.8384C20.6269 15.2065 20.524 14.6632 20.3269 14.2228C20.1327 13.7853 19.8679 13.4193 19.5384 13.1391C19.2089 12.856 18.8235 12.6501 18.388 12.5186C17.9526 12.3871 17.4789 12.3213 16.9846 12.3213C16.561 12.3213 16.1403 12.3813 15.7372 12.5014C15.3341 12.6215 14.9693 12.7988 14.6516 13.0333C14.3338 13.2649 14.069 13.5652 13.8631 13.9226C13.666 14.2629 13.5395 14.7318 13.5012 15.1836H14.0808C14.5104 15.1836 14.8105 14.9549 14.934 14.7947C15.0576 14.6346 15.3577 14.2143 15.6725 14.0141C15.8696 13.8883 16.0961 13.7968 16.3403 13.7396C16.8405 13.6252 17.3789 13.6224 17.8673 13.7653C18.1174 13.8397 18.3468 13.9512 18.544 14.0999C18.744 14.2486 18.9088 14.4402 19.0323 14.6661C19.1559 14.8948 19.2206 15.1665 19.2177 15.4753C19.2147 15.7841 19.1824 16.0672 19.1824 16.0672L19.1059 16.0443C18.6322 15.9014 18.1615 15.7956 17.7025 15.7298C17.2465 15.664 16.8081 15.6297 16.4021 15.6297C15.9432 15.6297 15.5136 15.6783 15.1253 15.7784C14.7428 15.8756 14.4044 16.0329 14.1191 16.2416C13.8366 16.4504 13.613 16.7277 13.4512 17.0594C13.2894 17.394 13.21 17.8 13.21 18.2661C13.21 18.7322 13.3041 19.1211 13.4924 19.4614C13.6807 19.8017 13.9337 20.0905 14.2456 20.3164C14.5574 20.5451 14.9134 20.7167 15.3047 20.8311C16.1785 21.0856 17.067 21.0541 17.9026 20.7596C18.3586 20.5995 18.7528 20.325 19.0735 19.9389L19.1794 19.8131V20.0419C19.1794 20.4508 19.5237 20.7853 19.9444 20.7853H20.6358V20.5337C20.6358 20.4565 20.6358 20.3679 20.6358 20.2735V18.2633Z" fill="white"/>
<path d="M12.1243 16.6737C12.1243 13.8943 11.0093 12.5046 8.71149 12.4303C7.97597 12.4045 6.84621 12.6047 5.97829 13.4711L5.93122 13.534L5.88415 13.4711C5.73116 13.2681 5.52521 13.1194 5.3281 12.9621C4.5455 12.3445 2.82438 12.1786 1.76229 12.6819C0.732566 13.1737 0.326559 14.1288 0.197107 14.655C0.0676555 15.1868 0.00292969 15.8388 0.00292969 16.5965V19.4732C0.00292969 20.2481 0.635477 20.88 1.42395 20.9115L1.41807 15.7473C1.41807 14.6807 2.30658 13.8171 3.40397 13.8171C4.50137 13.8171 5.38988 14.6807 5.38988 15.7473V19.476C5.38988 20.251 6.02243 20.8829 6.8109 20.9144V15.7015C6.81385 14.6607 7.68176 13.82 8.74973 13.82C9.81771 13.82 10.6856 14.6635 10.6856 15.7015V19.4932C10.6856 20.2767 11.3241 20.9172 12.1243 20.9487C12.1243 20.4911 12.1096 17.483 12.1243 16.6823V16.6737Z" fill="white"/>
<path d="M39.8887 16.648C39.8887 19.4274 41.0037 20.8171 43.3015 20.8914C44.037 20.9172 45.1668 20.717 46.0347 19.8506L46.0818 19.7877L46.1288 19.8506C46.2818 20.0536 46.4878 20.2023 46.6849 20.3596C47.4675 20.9772 49.1886 21.1431 50.2507 20.6398C51.2804 20.148 51.6864 19.1929 51.8159 18.6668C51.9453 18.1349 52.01 17.4829 52.01 16.7252V13.8485C52.01 13.0736 51.3775 12.4417 50.589 12.4102L50.5949 17.5744C50.5949 18.641 49.7064 19.5046 48.609 19.5046C47.5116 19.5046 46.6231 18.641 46.6231 17.5744V13.8457C46.6231 13.0708 45.9905 12.4388 45.2021 12.4074V17.6202C45.1991 18.661 44.3312 19.5017 43.2632 19.5017C42.1923 19.5017 41.3273 18.6582 41.3273 17.6202V13.8285C41.3273 13.045 40.6889 12.4045 39.8887 12.373C39.8887 12.8306 39.9034 15.8387 39.8887 16.6394V16.648Z" fill="white"/>
<path d="M66.9176 0.277541C66.8853 0.137427 66.7735 0.0316261 66.6293 0.00589076C66.4851 -0.0198445 66.341 0.0402045 66.2586 0.157443C63.8226 3.73179 58.0178 4.82411 57.959 4.83269C57.1087 4.9728 56.3526 5.27305 56.3232 5.28449C54.7315 5.90499 53.6488 9.49936 53.2575 11.0177C52.2013 9.89682 51.4217 8.51283 51.051 7.02305C51.0863 6.94584 51.0951 6.85434 51.0657 6.76855C51.001 6.58269 50.795 6.48261 50.6038 6.54551C50.3125 6.63988 50.0154 6.617 49.7506 6.48833C49.8241 6.29388 49.9389 6.11373 50.1007 5.97648C50.2154 5.8764 50.2566 5.71913 50.1978 5.57901L49.4946 3.86904C49.933 3.64886 50.3831 3.5831 50.8597 3.66888C52.4514 3.96055 53.7283 5.8478 53.743 5.86782C53.8136 5.97362 53.9283 6.02795 54.049 6.02795C54.1166 6.02795 54.1843 6.01079 54.2461 5.97076C54.4138 5.86496 54.4638 5.64478 54.3549 5.48179C54.2961 5.39315 52.8986 3.32288 50.998 2.97117C50.2684 2.83677 49.5652 2.97689 48.9091 3.37721C48.8797 3.38865 48.8532 3.40009 48.8268 3.41725C48.8032 3.4344 48.7797 3.45442 48.7562 3.47158C48.7444 3.48016 48.7326 3.48587 48.7209 3.49445C48.712 3.50017 48.7091 3.50875 48.7003 3.51447C48.1089 3.98342 47.7588 4.69543 47.7588 5.46177C47.7588 6.44257 48.3325 7.33187 49.2181 7.72648C49.2651 7.74935 49.3181 7.75793 49.371 7.75793C49.4564 7.75793 49.5417 7.72934 49.6094 7.67215C49.7182 7.58065 49.7594 7.43767 49.7212 7.30328C49.7123 7.27754 49.7094 7.24895 49.7035 7.22321C49.8771 7.27754 50.0595 7.309 50.2419 7.309C50.286 7.309 50.3302 7.30042 50.3714 7.29756C51.151 10.2714 53.4458 12.8364 56.3085 13.9087C56.941 15.4699 57.8119 17.0427 58.6563 18.561C58.7475 18.724 58.8387 18.887 58.9269 19.0471C57.4382 17.7032 55.9466 15.7244 55.014 14.146C54.9139 13.9773 54.6903 13.9172 54.5167 14.0145C54.3432 14.1117 54.2814 14.329 54.3814 14.4977C55.6759 16.6909 57.8678 19.4446 59.8507 20.6485C59.9096 20.6856 59.9772 20.7028 60.0449 20.7028C60.1332 20.7028 60.2214 20.6713 60.2921 20.6084C60.4127 20.4998 60.445 20.3282 60.3715 20.1852C60.0331 19.539 59.6595 18.8699 59.2976 18.2208C58.4415 16.6824 57.5559 15.0896 56.9381 13.5312C56.9322 13.5141 56.9175 13.4998 56.9057 13.4826C56.9087 12.4761 56.838 11.6182 56.6792 10.829C56.9852 10.7804 57.2647 10.7547 57.4735 10.7547C60.5657 10.7547 63.0723 8.48996 63.1665 8.40132C67.7885 4.4295 66.9529 0.440531 66.9176 0.271822V0.277541ZM48.4884 5.46463C48.4884 5.03857 48.6355 4.63538 48.8974 4.32084L49.4328 5.62476C49.2034 5.88212 49.0504 6.19666 48.9827 6.53408C48.9768 6.55123 48.9768 6.56553 48.9739 6.58269C48.968 6.61414 48.9592 6.64274 48.9562 6.67419C48.662 6.35393 48.4914 5.92215 48.4914 5.46463H48.4884ZM56.1761 13.0937C55.3847 12.7477 54.6462 12.2759 53.9842 11.7097C54.402 11.4095 55.1993 11.1436 55.9672 10.9691C56.0937 11.6096 56.1643 12.3016 56.179 13.0937H56.1761ZM62.6781 7.88375C62.6545 7.90663 60.2832 10.0512 57.4765 10.0512C57.2205 10.0512 56.7321 10.1027 56.1702 10.2085C56.1702 10.2085 56.1673 10.2085 56.1643 10.2085C56.1643 10.2085 56.1643 10.2085 56.1614 10.2085C55.4729 10.3372 54.6756 10.5488 54.0548 10.849C54.6021 8.86169 55.5936 6.33105 56.5997 5.93931C56.6056 5.93931 57.3117 5.65622 58.0796 5.5304C59.5242 5.29306 63.8549 4.03775 66.2704 1.30695C66.2498 2.62517 65.7555 5.23301 62.6751 7.88089L62.6781 7.88375Z" fill="white"/>
</g>
<defs>
<clipPath id="clip0_16_1580">
<rect width="67" height="21" fill="white"/>
</clipPath>
</defs>
</svg>
