<svg width="18" height="18" viewBox="0 0 18 18" fill="none" xmlns="http://www.w3.org/2000/svg">
<g clip-path="url(#clip0_16_1554)">
<path d="M9.00302 4.37842C6.45077 4.37842 4.38452 6.44692 4.38452 8.99692C4.38452 11.5492 6.45302 13.6154 9.00302 13.6154C11.5553 13.6154 13.6215 11.5469 13.6215 8.99692C13.6215 6.44467 11.553 4.37842 9.00302 4.37842ZM9.00302 11.9947C7.34627 11.9947 6.00527 10.6529 6.00527 8.99692C6.00527 7.34092 7.34702 5.99917 9.00302 5.99917C10.659 5.99917 12.0008 7.34092 12.0008 8.99692C12.0015 10.6529 10.6598 11.9947 9.00302 11.9947Z" fill="white"/>
<path d="M12.711 0.0570283C11.055 -0.0202217 6.9533 -0.0164717 5.2958 0.0570283C3.8393 0.125278 2.55455 0.477028 1.5188 1.51278C-0.212202 3.24378 0.00904838 5.57628 0.00904838 8.99703C0.00904838 12.498 -0.185952 14.7765 1.5188 16.4813C3.25655 18.2183 5.6228 17.991 9.00305 17.991C12.471 17.991 13.668 17.9933 14.8943 17.5185C16.5615 16.8713 17.82 15.381 17.943 12.7043C18.021 11.0475 18.0165 6.94653 17.943 5.28903C17.7945 2.12928 16.0988 0.213028 12.711 0.0570283ZM15.3323 15.336C14.1975 16.4708 12.6233 16.3695 8.9813 16.3695C5.2313 16.3695 3.72755 16.425 2.6303 15.3248C1.36655 14.067 1.5953 12.0473 1.5953 8.98503C1.5953 4.84128 1.17005 1.85703 5.3288 1.64403C6.2843 1.61028 6.56555 1.59903 8.9708 1.59903L9.00455 1.62153C13.0013 1.62153 16.137 1.20303 16.3253 5.36103C16.368 6.30978 16.3778 6.59478 16.3778 8.99628C16.377 12.7028 16.4475 14.2155 15.3323 15.336Z" fill="white"/>
<path d="M13.8045 5.27569C14.4005 5.27569 14.8837 4.79249 14.8837 4.19644C14.8837 3.60038 14.4005 3.11719 13.8045 3.11719C13.2084 3.11719 12.7252 3.60038 12.7252 4.19644C12.7252 4.79249 13.2084 5.27569 13.8045 5.27569Z" fill="white"/>
</g>
<defs>
<clipPath id="clip0_16_1554">
<rect width="18" height="18" fill="white"/>
</clipPath>
</defs>
</svg>
