<svg width="18" height="18" viewBox="0 0 18 18" fill="none" xmlns="http://www.w3.org/2000/svg">
<path d="M16.2 16.2V10.926C16.2 8.334 15.642 6.354 12.618 6.354C11.16 6.354 10.188 7.146 9.79204 7.902H9.75604V6.588H6.89404V16.2H9.88204V11.43C9.88204 10.17 10.116 8.964 11.664 8.964C13.194 8.964 13.212 10.386 13.212 11.502V16.182H16.2V16.2Z" fill="white"/>
<path d="M2.03406 6.58789H5.02206V16.1999H2.03406V6.58789Z" fill="white"/>
<path d="M3.52805 1.7998C2.57405 1.7998 1.80005 2.5738 1.80005 3.5278C1.80005 4.4818 2.57405 5.2738 3.52805 5.2738C4.48205 5.2738 5.25605 4.4818 5.25605 3.5278C5.25605 2.5738 4.48205 1.7998 3.52805 1.7998Z" fill="white"/>
</svg>
