<svg width="220" height="46" viewBox="0 0 220 46" fill="none" xmlns="http://www.w3.org/2000/svg">
<path d="M163.832 13.8774V15.5023H157.054V14.2653L161.38 8.50137H157.105V6.87648H163.744V8.11344L159.418 13.8774H163.832Z" fill="white"/>
<path d="M164.769 12.9661V9.12716H166.393V12.7392C166.393 13.5517 166.931 14.0787 167.744 14.0787C168.556 14.0787 169.094 13.5517 169.094 12.7392V9.12716H170.719V12.9661C170.719 14.591 169.53 15.656 167.744 15.656C165.958 15.656 164.769 14.5947 164.769 12.9661Z" fill="white"/>
<path d="M172.168 6.5032H173.793V15.5059H172.168V6.5032Z" fill="white"/>
<path d="M185.409 11.3522V15.5023H183.784V11.839C183.784 11.0631 183.297 10.5508 182.532 10.5508C181.731 10.5508 181.193 11.0778 181.193 11.8646V15.5023H179.568V11.839C179.568 11.0631 179.067 10.5508 178.306 10.5508C177.544 10.5508 176.966 11.0778 176.966 11.8646V15.5023H175.341V9.12717H176.966V9.78957C177.442 9.2516 178.079 8.97713 178.855 8.97713C179.755 8.97713 180.454 9.36505 180.856 10.0165C181.369 9.33943 182.108 8.97713 183.03 8.97713C184.468 8.97713 185.405 9.914 185.405 11.3522H185.409Z" fill="white"/>
<path d="M193.31 9.12717V15.5023H191.685V14.7411C191.173 15.3047 190.459 15.6523 189.61 15.6523C187.835 15.6523 186.496 14.2141 186.496 12.3147C186.496 10.4154 187.835 8.97713 189.61 8.97713C190.459 8.97713 191.173 9.32845 191.685 9.88838V9.12717H193.31ZM191.685 12.3147C191.685 11.3156 190.935 10.5508 189.921 10.5508C188.908 10.5508 188.172 11.312 188.172 12.3147C188.172 13.3175 188.922 14.0787 189.921 14.0787C190.92 14.0787 191.685 13.3175 191.685 12.3147Z" fill="white"/>
<path d="M198.598 9.02837V10.7045H198.324C197.16 10.7045 196.487 11.3925 196.487 12.4794V15.506H194.862V9.13084H196.487V9.95427C196.948 9.36506 197.574 9.02837 198.324 9.02837H198.598Z" fill="white"/>
<path d="M164.882 21.8774V30.5032H163.133L159.206 24.8381V30.5032H157.482V21.8774H159.232L163.158 27.5425V21.8774H164.882Z" fill="white"/>
<path d="M172.845 27.9048H167.905C168.132 28.7063 168.805 29.2187 169.731 29.2187C170.507 29.2187 171.144 28.8564 171.48 28.4318L172.567 29.3833C171.905 30.1702 170.88 30.6569 169.68 30.6569C167.656 30.6569 166.141 29.2077 166.141 27.2937C166.141 25.3797 167.605 23.9817 169.53 23.9817C171.455 23.9817 172.882 25.409 172.882 27.3339C172.882 27.5096 172.871 27.7328 172.845 27.9085V27.9048ZM167.894 26.7191H171.144C170.942 25.9177 170.306 25.4053 169.519 25.4053C168.732 25.4053 168.095 25.9286 167.894 26.7191Z" fill="white"/>
<path d="M179.92 24.1281L177.27 30.5032H175.594L172.944 24.1281H174.796L176.458 28.4684L178.108 24.1281H179.92Z" fill="white"/>
<path d="M186.708 27.9048H181.768C181.995 28.7063 182.668 29.2187 183.594 29.2187C184.37 29.2187 185.006 28.8564 185.343 28.4318L186.43 29.3833C185.768 30.1702 184.743 30.6569 183.543 30.6569C181.519 30.6569 180.004 29.2077 180.004 27.2937C180.004 25.3797 181.468 23.9817 183.393 23.9817C185.318 23.9817 186.745 25.409 186.745 27.3339C186.745 27.5096 186.734 27.7328 186.708 27.9085V27.9048ZM181.757 26.7191H185.006C184.805 25.9177 184.168 25.4053 183.382 25.4053C182.595 25.4053 181.958 25.9286 181.757 26.7191Z" fill="white"/>
<path d="M187.396 29.6798L188.183 28.6038C188.67 29.0284 189.285 29.3175 190.046 29.3175C190.697 29.3175 191.173 29.1052 191.173 28.7173C191.173 28.2928 190.624 28.1427 189.921 27.978C188.908 27.7548 187.597 27.4401 187.597 25.9909C187.597 24.6404 188.787 23.978 190.199 23.978C191.286 23.978 192.099 24.366 192.673 24.8161L191.887 25.903C191.425 25.5517 190.888 25.3138 190.236 25.3138C189.687 25.3138 189.237 25.4895 189.237 25.8628C189.237 26.2873 189.775 26.4264 190.489 26.5764C191.502 26.8033 192.812 27.1144 192.812 28.5636C192.812 29.914 191.612 30.6533 190.086 30.6533C188.897 30.6533 188.011 30.2031 187.4 29.6761L187.396 29.6798Z" fill="white"/>
<path d="M162.917 43.8317H159.217L158.606 45.5078H156.743L160.07 36.882H162.108L165.42 45.5078H163.532L162.92 43.8317H162.917ZM162.331 42.247L161.069 38.785L159.795 42.247H162.335H162.331Z" fill="#2AAB5E"/>
<path d="M172.582 36.505V45.5078H170.957V44.7466C170.445 45.3102 169.731 45.6578 168.882 45.6578C167.107 45.6578 165.768 44.2196 165.768 42.3202C165.768 40.4209 167.107 38.9826 168.882 38.9826C169.731 38.9826 170.445 39.334 170.957 39.8939V36.505H172.582ZM170.957 42.3202C170.957 41.3211 170.207 40.5563 169.193 40.5563C168.179 40.5563 167.444 41.3175 167.444 42.3202C167.444 43.323 168.194 44.0842 169.193 44.0842C170.192 44.0842 170.957 43.323 170.957 42.3202Z" fill="#2AAB5E"/>
<path d="M180.395 39.1326L177.746 45.5078H176.07L173.42 39.1326H175.272L176.933 43.473L178.584 39.1326H180.395Z" fill="#2AAB5E"/>
<path d="M180.483 42.3202C180.483 40.4209 181.958 38.9826 183.909 38.9826C185.859 38.9826 187.334 40.4209 187.334 42.3202C187.334 44.2196 185.859 45.6578 183.909 45.6578C181.958 45.6578 180.483 44.2196 180.483 42.3202ZM185.658 42.3202C185.658 41.3211 184.919 40.5563 183.909 40.5563C182.898 40.5563 182.159 41.3175 182.159 42.3202C182.159 43.323 182.909 44.0842 183.909 44.0842C184.908 44.0842 185.658 43.323 185.658 42.3202Z" fill="#2AAB5E"/>
<path d="M188.11 42.3202C188.11 40.4209 189.585 38.9826 191.535 38.9826C192.823 38.9826 193.899 39.6084 194.474 40.5709L193.061 41.42C192.772 40.9076 192.212 40.5563 191.535 40.5563C190.536 40.5563 189.786 41.3175 189.786 42.3202C189.786 43.323 190.536 44.0842 191.535 44.0842C192.209 44.0842 192.772 43.7329 193.061 43.2205L194.474 44.0695C193.899 45.032 192.823 45.6578 191.535 45.6578C189.585 45.6578 188.11 44.2196 188.11 42.3202Z" fill="#2AAB5E"/>
<path d="M201.837 39.1327V45.5078H200.212V44.7466C199.7 45.3102 198.986 45.6578 198.137 45.6578C196.362 45.6578 195.023 44.2196 195.023 42.3202C195.023 40.4209 196.362 38.9826 198.137 38.9826C198.986 38.9826 199.7 39.334 200.212 39.8939V39.1327H201.837ZM200.212 42.3202C200.212 41.3211 199.462 40.5563 198.448 40.5563C197.435 40.5563 196.699 41.3175 196.699 42.3202C196.699 43.323 197.449 44.0842 198.448 44.0842C199.447 44.0842 200.212 43.323 200.212 42.3202Z" fill="#2AAB5E"/>
<path d="M202.997 42.3202C202.997 40.4209 204.472 38.9826 206.423 38.9826C207.711 38.9826 208.787 39.6084 209.361 40.5709L207.949 41.42C207.66 40.9076 207.1 40.5563 206.423 40.5563C205.424 40.5563 204.673 41.3175 204.673 42.3202C204.673 43.323 205.424 44.0842 206.423 44.0842C207.096 44.0842 207.66 43.7329 207.949 43.2205L209.361 44.0695C208.787 45.032 207.711 45.6578 206.423 45.6578C204.472 45.6578 202.997 44.2196 202.997 42.3202Z" fill="#2AAB5E"/>
<path d="M210.163 37.1821C210.163 36.6075 210.613 36.1684 211.188 36.1684C211.762 36.1684 212.212 36.6075 212.212 37.1821C212.212 37.7566 211.762 38.1958 211.188 38.1958C210.613 38.1958 210.163 37.7566 210.163 37.1821ZM210.375 39.1327H212V45.5078H210.375V39.1327Z" fill="#2AAB5E"/>
<path d="M220 39.1327V45.5078H218.375V44.7466C217.863 45.3102 217.149 45.6578 216.3 45.6578C214.525 45.6578 213.186 44.2196 213.186 42.3202C213.186 40.4209 214.525 38.9826 216.3 38.9826C217.149 38.9826 217.863 39.334 218.375 39.8939V39.1327H220ZM218.375 42.3202C218.375 41.3211 217.625 40.5563 216.611 40.5563C215.597 40.5563 214.862 41.3175 214.862 42.3202C214.862 43.323 215.612 44.0842 216.611 44.0842C217.61 44.0842 218.375 43.323 218.375 42.3202Z" fill="#2AAB5E"/>
<path fill-rule="evenodd" clip-rule="evenodd" d="M47.9817 45.8591H60.4648V20.8783L79.9268 45.8591H90.979V0.325714H78.4959V24.3916L59.7475 0.325714H47.9817V45.8591Z" fill="white"/>
<path fill-rule="evenodd" clip-rule="evenodd" d="M0 45.8591H34.6533L40.2635 35.1949H17.4346L40.2635 9.48949V0.325714H6.39341L0.779506 10.9863H22.8326L0 36.6917V45.8591Z" fill="white"/>
<path fill-rule="evenodd" clip-rule="evenodd" d="M127.228 0H115.063L95.678 45.8591H108.948L110.712 41.4529L121.05 14.9643L126.123 27.9085L114.953 37.7237H129.764L133.083 45.8591H146.613L127.228 0Z" fill="#2AAB5E"/>
</svg>
