<svg width="30" height="30" viewBox="0 0 30 30" fill="none" xmlns="http://www.w3.org/2000/svg">
<path fill-rule="evenodd" clip-rule="evenodd" d="M21.6814 1.65076C20.6009 1.56249 19.2566 1.5625 17.542 1.5625H12.4581C10.7434 1.5625 9.39911 1.56249 8.31868 1.65076C7.21849 1.74065 6.30961 1.92673 5.48694 2.34589C4.13453 3.03498 3.03498 4.13453 2.34589 5.48694C1.92673 6.30961 1.74065 7.2185 1.65076 8.31868C1.56249 9.39911 1.5625 10.7434 1.5625 12.4581V17.7854C1.5625 20.907 4.09301 23.4375 7.21458 23.4375H7.96676C8.27739 23.4375 8.48979 23.7513 8.37443 24.0396C7.5161 26.1855 9.98738 28.1254 11.868 26.7821L15.1314 24.4511L15.1929 24.4074C16.079 23.783 17.1349 23.4445 18.2189 23.4376L18.2943 23.4375H19.1639C21.0996 23.4378 22.2805 23.438 23.2724 23.1471C25.6214 22.4584 27.4584 20.6214 28.1471 18.2724C28.438 17.2805 28.4378 16.0998 28.4375 14.164V12.458C28.4375 10.7434 28.4375 9.39909 28.3493 8.31868C28.2594 7.21849 28.0733 6.30961 27.6541 5.48694C26.965 4.13453 25.8655 3.03498 24.513 2.34589C23.6904 1.92673 22.7815 1.74065 21.6814 1.65076ZM6.33818 4.01653C6.85246 3.75449 7.48713 3.59995 8.47135 3.51954C9.46653 3.43823 10.7344 3.4375 12.5 3.4375H17.5C19.2656 3.4375 20.5335 3.43823 21.5286 3.51954C22.5129 3.59995 23.1475 3.75449 23.6619 4.01653C24.6614 4.52585 25.4741 5.33856 25.9835 6.33818C26.2455 6.85246 26.4 7.48713 26.4805 8.47135C26.5618 9.46653 26.5625 10.7344 26.5625 12.5V13.9803C26.5625 16.1576 26.553 17.0454 26.3479 17.7448C25.8388 19.481 24.481 20.8388 22.7448 21.3479C22.0454 21.553 21.1576 21.5625 18.9803 21.5625H18.2943L18.2069 21.5626C16.7403 21.572 15.3116 22.0299 14.1128 22.8746L10.7782 25.2564C10.4214 25.5113 9.95246 25.1431 10.1153 24.736C10.7233 23.216 9.60389 21.5625 7.96676 21.5625H7.21458C5.12855 21.5625 3.4375 19.8715 3.4375 17.7854V12.5C3.4375 10.7344 3.43823 9.46653 3.51954 8.47135C3.59995 7.48713 3.75449 6.85246 4.01653 6.33818C4.52585 5.33856 5.33856 4.52585 6.33818 4.01653Z" fill="white"/>
<path d="M11.25 12.5C11.25 13.1904 10.6904 13.75 10 13.75C9.30965 13.75 8.75 13.1904 8.75 12.5C8.75 11.8097 9.30965 11.25 10 11.25C10.6904 11.25 11.25 11.8097 11.25 12.5Z" fill="white"/>
<path d="M16.25 12.5C16.25 13.1904 15.6904 13.75 15 13.75C14.3096 13.75 13.75 13.1904 13.75 12.5C13.75 11.8097 14.3096 11.25 15 11.25C15.6904 11.25 16.25 11.8097 16.25 12.5Z" fill="white"/>
<path d="M21.25 12.5C21.25 13.1904 20.6904 13.75 20 13.75C19.3096 13.75 18.75 13.1904 18.75 12.5C18.75 11.8097 19.3096 11.25 20 11.25C20.6904 11.25 21.25 11.8097 21.25 12.5Z" fill="white"/>
</svg>
