<svg width="27" height="27" viewBox="0 0 27 27" fill="none" xmlns="http://www.w3.org/2000/svg">
<g clip-path="url(#clip0_0_34)">
<path d="M13.5 27C6.0558 27 0 20.9442 0 13.5C0 6.0558 6.0558 0 13.5 0C20.9442 0 27 6.0558 27 13.5C27 20.9442 20.9442 27 13.5 27ZM13.5 1.6875C6.98627 1.6875 1.6875 6.98627 1.6875 13.5C1.6875 20.0137 6.98627 25.3125 13.5 25.3125C20.0137 25.3125 25.3125 20.0137 25.3125 13.5C25.3125 6.98627 20.0137 1.6875 13.5 1.6875Z" fill="#202246"/>
<path d="M19.4062 14.3438H7.59375C7.128 14.3438 6.75 13.9658 6.75 13.5C6.75 13.0342 7.128 12.6562 7.59375 12.6562H19.4062C19.872 12.6562 20.25 13.0342 20.25 13.5C20.25 13.9658 19.872 14.3438 19.4062 14.3438Z" fill="#202246"/>
<path d="M13.5 20.25C13.0342 20.25 12.6562 19.872 12.6562 19.4062V7.59375C12.6562 7.128 13.0342 6.75 13.5 6.75C13.9658 6.75 14.3438 7.128 14.3438 7.59375V19.4062C14.3438 19.872 13.9658 20.25 13.5 20.25Z" fill="#202246"/>
</g>
<defs>
<clipPath id="clip0_0_34">
<rect width="27" height="27" fill="white"/>
</clipPath>
</defs>
</svg>
