<svg width="19" height="19" viewBox="0 0 19 19" fill="none" xmlns="http://www.w3.org/2000/svg">
<path fill-rule="evenodd" clip-rule="evenodd" d="M6.79697 0.16225C8.43493 -0.16356 10.1329 0.00366993 11.6758 0.642715C13.2188 1.28185 14.538 2.36437 15.4659 3.75304C16.3937 5.14168 16.8887 6.77432 16.8887 8.44442C16.8866 10.3282 16.2535 12.1448 15.1104 13.6172L18.6904 17.1983C18.8379 17.3458 18.9387 17.5337 18.9795 17.7383C19.0202 17.943 18.9998 18.1558 18.9199 18.3486C18.8401 18.5414 18.7047 18.7063 18.5313 18.8223C18.3577 18.9383 18.1531 19 17.9443 19C17.6645 18.9999 17.3961 18.8884 17.1983 18.6904L13.6172 15.1104C12.1448 16.2535 10.3282 16.8866 8.44442 16.8887C6.77432 16.8887 5.14168 16.3937 3.75304 15.4658C2.36437 14.538 1.28185 13.2188 0.642715 11.6758C0.00366949 10.1329 -0.16356 8.43492 0.16225 6.79697C0.488092 5.15896 1.29282 3.6547 2.47376 2.47376C3.6547 1.29282 5.15896 0.488093 6.79697 0.16225ZM8.44442 2.11145C7.19185 2.11148 5.96736 2.48294 4.92589 3.17883C3.88448 3.87472 3.07223 4.86344 2.5929 6.02061C2.1136 7.17774 1.98828 8.45134 2.23255 9.67976C2.47691 10.9082 3.08027 12.0372 3.96593 12.9229C4.85166 13.8086 5.98054 14.4119 7.20907 14.6563C8.43756 14.9006 9.71102 14.7753 10.8682 14.2959C12.0254 13.8166 13.0141 13.0044 13.71 11.9629C14.4059 10.9214 14.7774 9.69702 14.7774 8.44442C14.7757 6.76528 14.1083 5.15522 12.9209 3.96789C11.7336 2.7806 10.1235 2.11313 8.44442 2.11145Z" fill="black"/>
</svg>
