<svg width="33" height="28" viewBox="0 0 33 28" fill="none" xmlns="http://www.w3.org/2000/svg">
<path d="M31.7129 3.32178H29.5657V1.17455C29.5657 0.52591 29.0398 0 28.3912 0C27.7425 0 27.2166 0.52591 27.2166 1.17455V3.32178H25.0699C24.4213 3.32178 23.8954 3.84769 23.8954 4.49633C23.8954 5.14497 24.4213 5.67088 25.0699 5.67088H27.2166V7.81753C27.2166 8.46617 27.7425 8.99208 28.3912 8.99208C29.0398 8.99208 29.5657 8.46617 29.5657 7.81753V5.67088H31.7129C32.3616 5.67088 32.8875 5.14497 32.8875 4.49633C32.8875 3.84769 32.3616 3.32178 31.7129 3.32178Z" fill="white"/>
<path d="M9.32644 27.9999H22.9164C28.059 27.9999 32.2428 23.8161 32.2428 18.6735V11.5453C32.2428 10.8966 31.7169 10.3707 31.0683 10.3707C30.4196 10.3707 29.8937 10.8966 29.8937 11.5453V18.6735C29.8937 22.5206 26.7635 25.6508 22.9164 25.6508H9.32644C5.47933 25.6508 2.3491 22.5206 2.3491 18.6735V10.5101C2.3491 8.88103 2.91473 7.38417 3.85407 6.19557L13.6146 16.3903C14.2627 17.0716 15.1768 17.4622 16.1214 17.4622C17.066 17.4622 17.9802 17.0716 18.6254 16.3926L24.8457 9.89643C25.2941 9.42787 25.2781 8.6846 24.8095 8.23612C24.3427 7.78821 23.5988 7.80426 23.1492 8.27225L16.926 14.7707C16.5062 15.2123 15.7394 15.2146 15.3139 14.7684L5.59933 4.62235C6.67904 3.9365 7.95532 3.53333 9.32644 3.53333H20.9962C21.6449 3.53333 22.1708 3.00742 22.1708 2.35877C22.1708 1.71013 21.6449 1.18422 20.9962 1.18422H9.32644C4.18376 1.18422 0 5.36799 0 10.5101V18.6735C0 23.8161 4.18376 27.9999 9.32644 27.9999Z" fill="white"/>
</svg>
