<svg width="24" height="24" viewBox="0 0 24 24" fill="none" xmlns="http://www.w3.org/2000/svg">
<g clip-path="url(#clip0_16_1391)">
<path d="M20.8887 8.66749C20.7311 8.509 20.6421 8.29489 20.641 8.07139V5.70274C20.6402 5.08138 20.3931 4.4857 19.9537 4.04634C19.5143 3.60697 18.9186 3.35978 18.2973 3.35899H15.9286C15.7051 3.35788 15.491 3.26893 15.3325 3.11134L13.6582 1.43704C13.218 0.998011 12.6217 0.751465 12 0.751465C11.3783 0.751465 10.7819 0.998011 10.3417 1.43704L8.66743 3.11134C8.50894 3.26893 8.29483 3.35788 8.07133 3.35899H5.70268C5.08132 3.35978 4.48564 3.60697 4.04628 4.04634C3.60691 4.4857 3.35972 5.08138 3.35893 5.70274V8.07139C3.35782 8.29489 3.26887 8.509 3.11128 8.66749L1.43698 10.3418C0.99795 10.782 0.751404 11.3783 0.751404 12C0.751404 12.6218 0.99795 13.2181 1.43698 13.6583L3.11128 15.3326C3.26887 15.4911 3.35782 15.7052 3.35893 15.9287V18.2973C3.35972 18.9187 3.60691 19.5144 4.04628 19.9537C4.48564 20.3931 5.08132 20.6403 5.70268 20.6411H8.07133C8.29483 20.6422 8.50894 20.7311 8.66743 20.8887L10.3417 22.563C10.782 23.002 11.3783 23.2486 12 23.2486C12.6217 23.2486 13.218 23.002 13.6582 22.563L15.3325 20.8887C15.491 20.7311 15.7051 20.6422 15.9286 20.6411H18.2973C18.9186 20.6403 19.5143 20.3931 19.9537 19.9537C20.3931 19.5144 20.6402 18.9187 20.641 18.2973V15.9287C20.6421 15.7052 20.7311 15.4911 20.8887 15.3326L22.563 13.6583C23.002 13.2181 23.2486 12.6218 23.2486 12C23.2486 11.3783 23.002 10.782 22.563 10.3418L20.8887 8.66749ZM21.5025 12.5975L19.8282 14.2719C19.3899 14.7122 19.143 15.3075 19.141 15.9287V18.2973C19.141 18.5211 19.0521 18.7357 18.8939 18.8939C18.7356 19.0521 18.521 19.141 18.2973 19.1411H15.9286C15.3075 19.1431 14.7121 19.39 14.2719 19.8282L12.5976 21.5025C12.4386 21.6602 12.2238 21.7486 12 21.7486C11.7761 21.7486 11.5613 21.6602 11.4024 21.5025L9.72808 19.8282C9.28784 19.39 8.69251 19.1431 8.07133 19.1411H5.70268C5.47892 19.141 5.26433 19.0521 5.1061 18.8939C4.94788 18.7357 4.85897 18.5211 4.85893 18.2973V15.9287C4.85693 15.3075 4.61008 14.7122 4.17193 14.2719L2.49748 12.5976C2.3392 12.439 2.2503 12.2241 2.2503 12C2.2503 11.776 2.3392 11.561 2.49748 11.4024L4.17193 9.72814C4.61008 9.28785 4.85693 8.69254 4.85893 8.07139V5.70274C4.85897 5.47898 4.94788 5.26439 5.1061 5.10616C5.26433 4.94794 5.47892 4.85903 5.70268 4.85899H8.07133C8.69248 4.85699 9.28779 4.61014 9.72808 4.17199L11.4024 2.49754C11.5613 2.33992 11.7761 2.25147 12 2.25147C12.2238 2.25147 12.4386 2.33992 12.5976 2.49754L14.2719 4.17199C14.7122 4.61014 15.3075 4.85699 15.9286 4.85899H18.2973C18.521 4.85903 18.7356 4.94794 18.8939 5.10616C19.0521 5.26439 19.141 5.47898 19.141 5.70274V8.07139C19.143 8.69257 19.3899 9.2879 19.8282 9.72814L21.5025 11.4024C21.6608 11.561 21.7497 11.776 21.7497 12C21.7497 12.2241 21.6608 12.4389 21.5025 12.5975Z" fill="#202246"/>
<path d="M14.4697 9.47018L10.9995 12.9389L9.53025 11.4697C9.3888 11.3331 9.19935 11.2575 9.0027 11.2592C8.80605 11.2609 8.61794 11.3398 8.47889 11.4788C8.33983 11.6179 8.26095 11.806 8.25924 12.0026C8.25754 12.1993 8.33313 12.3887 8.46975 12.5302L10.47 14.5297C10.6106 14.6703 10.8014 14.7493 11.0002 14.7493C11.1991 14.7493 11.3899 14.6703 11.5305 14.5297L15.531 10.5307C15.6026 10.4615 15.6598 10.3787 15.6991 10.2872C15.7384 10.1957 15.7591 10.0973 15.7599 9.99773C15.7608 9.89814 15.7418 9.79938 15.7041 9.70721C15.6664 9.61504 15.6107 9.5313 15.5403 9.46088C15.4699 9.39046 15.3861 9.33477 15.294 9.29706C15.2018 9.25935 15.103 9.24037 15.0034 9.24124C14.9039 9.2421 14.8054 9.26279 14.7139 9.3021C14.6224 9.34141 14.5389 9.39854 14.4697 9.47018Z" fill="#202246"/>
</g>
<defs>
<clipPath id="clip0_16_1391">
<rect width="24" height="24" fill="white"/>
</clipPath>
</defs>
</svg>
