<svg width="18" height="18" viewBox="0 0 18 18" fill="none" xmlns="http://www.w3.org/2000/svg">
<path d="M17.2984 3.75345C16.6487 2.98107 15.4491 2.66602 13.1581 2.66602H4.84177C2.49834 2.66602 1.27841 3.0014 0.631103 3.82371C0 4.62546 0 5.80678 0 7.44176V10.558C0 13.7255 0.7488 15.3337 4.84177 15.3337H13.1581C15.1449 15.3337 16.2458 15.0557 16.958 14.3741C17.6884 13.6751 18 12.5338 18 10.558V7.44176C18 5.71754 17.9512 4.52925 17.2984 3.75345ZM11.5561 9.43013L7.77966 11.4038C7.69523 11.4479 7.60291 11.4698 7.5107 11.4698C7.4063 11.4698 7.30214 11.4417 7.20987 11.3859C7.03614 11.2806 6.93006 11.0923 6.93006 10.8892V6.95449C6.93006 6.75173 7.03585 6.5636 7.20923 6.45827C7.38267 6.35294 7.59838 6.34574 7.77832 6.43922L11.5547 8.40018C11.7469 8.49993 11.8675 8.69828 11.8678 8.91469C11.868 9.13127 11.7479 9.32991 11.5561 9.43013Z" fill="white"/>
</svg>
